<svg xmlns="http://www.w3.org/2000/svg" viewBox="0 0 1440 738"><defs><style>.cls-1{fill:#b3ce49;}.cls-2{fill:#9ac33b;}.cls-3{fill:#754812;}.cls-4{fill:#5d3a12;}.cls-5{fill:none;stroke:#586724;stroke-miterlimit:10;stroke-width:3px;opacity:0.46;}</style></defs><title>Basic mit ID</title><g id="Ebene_2" data-name="Ebene 2"><g id="Ebene_1-2" data-name="Ebene 1"><polygon id="Feld24" class="cls-1" points="936 180 1008 216 1080 180 1008 144 936 180"/><polygon id="Feld54" class="cls-1" points="936 252 1008 288 1080 252 1008 216 936 252"/><polygon id="Feld78" class="cls-1" points="792 252 864 288 936 252 864 216 792 252"/><polygon id="Feld92" class="cls-1" points="792 324 864 360 936 324 864 288 792 324"/><polygon id="Feld100" class="cls-1" points="648 324 720 360 792 324 720 288 648 324"/><polygon id="Feld98" class="cls-1" points="648 396 720 432 792 396 720 360 648 396"/><polygon id="Feld86" class="cls-1" points="504 396 576 432 648 396 576 360 504 396"/><polygon id="Feld68" class="cls-1" points="504 468 576 504 648 468 576 432 504 468"/><polygon id="Feld40" class="cls-1" points="360 468 432 504 504 468 432 432 360 468"/><polygon id="Feld6" class="cls-1" points="360 540 432 576 504 540 432 504 360 540"/><polygon id="Feld22" class="cls-1" points="1080 252 1152 288 1224 252 1152 216 1080 252"/><polygon id="Feld52" class="cls-1" points="1080 324 1152 360 1224 324 1152 288 1080 324"/><polygon id="Feld76" class="cls-1" points="936 324 1008 360 1080 324 1008 288 936 324"/><polygon id="Feld74" class="cls-1" points="936 396 1008 432 1080 396 1008 360 936 396"/><polygon id="Feld90" class="cls-1" points="792 396 864 432 936 396 864 360 792 396"/><polygon id="Feld72" class="cls-1" points="792 468 864 504 936 468 864 432 792 468"/><polygon id="Feld88" class="cls-1" points="648 468 720 504 792 468 720 432 648 468"/><polygon id="Feld70" class="cls-1" points="648 540 720 576 792 540 720 504 648 540"/><polygon id="Feld42" class="cls-1" points="504 540 576 576 648 540 576 504 504 540"/><polygon id="Feld8" class="cls-1" points="504 612 576 648 648 612 576 576 504 612"/><polygon id="Feld20" class="cls-1" points="1224 324 1296 360 1368 324 1296 288 1224 324"/><polygon id="Feld50" class="cls-1" points="1080 396 1152 432 1224 396 1152 360 1080 396"/><polygon id="Feld48" class="cls-1" points="936 468 1008 504 1080 468 1008 432 936 468"/><polygon id="Feld46" class="cls-1" points="792 540 864 576 936 540 864 504 792 540"/><polygon id="Feld44" class="cls-1" points="648 612 720 648 792 612 720 576 648 612"/><polygon id="Feld18" class="cls-1" points="1224 396 1296 432 1368 396 1296 360 1224 396"/><polygon id="Feld16" class="cls-1" points="1080 468 1152 504 1224 468 1152 432 1080 468"/><polygon id="Feld14" class="cls-1" points="936 540 1008 576 1080 540 1008 504 936 540"/><polygon id="Feld12" class="cls-1" points="792 612 864 648 936 612 864 576 792 612"/><polygon id="Feld10" class="cls-1" points="648 684 720 720 792 684 720 648 648 684"/><polygon id="Feld28" class="cls-1" points="648 36 720 72 792 36 720 0 648 36"/><polygon id="Feld58" class="cls-1" points="648 108 720 144 792 108 720 72 648 108"/><polygon id="Feld30" class="cls-1" points="504 108 576 144 648 108 576 72 504 108"/><polygon id="Feld60" class="cls-1" points="504 180 576 216 648 180 576 144 504 180"/><polygon id="Feld32" class="cls-1" points="360 180 432 216 504 180 432 144 360 180"/><polygon id="Feld62" class="cls-1" points="360 252 432 288 504 252 432 216 360 252"/><polygon id="Feld34" class="cls-1" points="216 252 288 288 360 252 288 216 216 252"/><polygon id="Feld64" class="cls-1" points="216 324 288 360 360 324 288 288 216 324"/><polygon id="Feld36" class="cls-1" points="72 324 144 360 216 324 144 288 72 324"/><polygon id="Feld2" class="cls-1" points="72 396 144 432 216 396 144 360 72 396"/><polygon id="Feld26" class="cls-1" points="792 108 864 144 936 108 864 72 792 108"/><polygon id="Feld56" class="cls-1" points="792 180 864 216 936 180 864 144 792 180"/><polygon id="Feld80" class="cls-1" points="648 180 720 216 792 180 720 144 648 180"/><polygon id="Feld94" class="cls-1" points="648 252 720 288 792 252 720 216 648 252"/><polygon id="Feld82" class="cls-1" points="504 252 576 288 648 252 576 216 504 252"/><polygon id="Feld96" class="cls-1" points="504 324 576 360 648 324 576 288 504 324"/><polygon id="Feld84" class="cls-1" points="360 324 432 360 504 324 432 288 360 324"/><polygon id="Feld66" class="cls-1" points="360 396 432 432 504 396 432 360 360 396"/><polygon id="Feld38" class="cls-1" points="216 396 288 432 360 396 288 360 216 396"/><polygon id="Feld4" class="cls-1" points="216 468 288 504 360 468 288 432 216 468"/><polygon id="Feld55" class="cls-2" points="864 216 936 252 1008 216 936 180 864 216"/><polygon id="Feld23" class="cls-2" points="1008 216 1080 252 1152 216 1080 180 1008 216"/><polygon id="Feld93" class="cls-2" points="720 288 792 324 864 288 792 252 720 288"/><polygon id="Feld77" class="cls-2" points="864 288 936 324 1008 288 936 252 864 288"/><polygon id="Feld97" class="cls-2" points="576 360 648 396 720 360 648 324 576 360"/><polygon id="Feld99" class="cls-2" points="720 360 792 396 864 360 792 324 720 360"/><polygon id="Feld67" class="cls-2" points="432 432 504 468 576 432 504 396 432 432"/><polygon id="Feld87" class="cls-2" points="576 432 648 468 720 432 648 396 576 432"/><polygon id="Feld5" class="cls-2" points="288 504 360 540 432 504 360 468 288 504"/><polygon id="Feld41" class="cls-2" points="432 504 504 540 576 504 504 468 432 504"/><polygon id="Feld53" class="cls-2" points="1008 288 1080 324 1152 288 1080 252 1008 288"/><polygon id="Feld21" class="cls-2" points="1152 288 1224 324 1296 288 1224 252 1152 288"/><polygon id="Feld91" class="cls-2" points="864 360 936 396 1008 360 936 324 864 360"/><polygon id="Feld75" class="cls-2" points="1008 360 1080 396 1152 360 1080 324 1008 360"/><polygon id="Feld89" class="cls-2" points="720 432 792 468 864 432 792 396 720 432"/><polygon id="Feld73" class="cls-2" points="864 432 936 468 1008 432 936 396 864 432"/><polygon id="Feld69" class="cls-2" points="576 504 648 540 720 504 648 468 576 504"/><polygon id="Feld71" class="cls-2" points="720 504 792 540 864 504 792 468 720 504"/><polygon id="Feld7" class="cls-2" points="432 576 504 612 576 576 504 540 432 576"/><polygon id="Feld43" class="cls-2" points="576 576 648 612 720 576 648 540 576 576"/><polygon id="Feld51" class="cls-2" points="1152 360 1224 396 1296 360 1224 324 1152 360"/><polygon id="Feld49" class="cls-2" points="1008 432 1080 468 1152 432 1080 396 1008 432"/><polygon id="Feld47" class="cls-2" points="864 504 936 540 1008 504 936 468 864 504"/><polygon id="Feld45" class="cls-2" points="720 576 792 612 864 576 792 540 720 576"/><polygon id="Feld9" class="cls-2" points="576 648 648 684 720 648 648 612 576 648"/><polygon id="Feld19" class="cls-2" points="1296 360 1368 396 1440 360 1368 324 1296 360"/><polygon id="Feld17" class="cls-2" points="1152 432 1224 468 1296 432 1224 396 1152 432"/><polygon id="Feld15" class="cls-2" points="1008 504 1080 540 1152 504 1080 468 1008 504"/><polygon id="Feld13" class="cls-2" points="864 576 936 612 1008 576 936 540 864 576"/><polygon id="Feld11" class="cls-2" points="720 648 792 684 864 648 792 612 720 648"/><polygon id="Feld29" class="cls-2" points="576 72 648 108 720 72 648 36 576 72"/><polygon id="Feld27" class="cls-2" points="720 72 792 108 864 72 792 36 720 72"/><polygon id="Feld31" class="cls-2" points="432 144 504 180 576 144 504 108 432 144"/><polygon id="Feld59" class="cls-2" points="576 144 648 180 720 144 648 108 576 144"/><polygon id="Feld33" class="cls-2" points="288 216 360 252 432 216 360 180 288 216"/><polygon id="Feld61" class="cls-2" points="432 216 504 252 576 216 504 180 432 216"/><polygon id="Feld35" class="cls-2" points="144 288 216 324 288 288 216 252 144 288"/><polygon id="Feld63" class="cls-2" points="288 288 360 324 432 288 360 252 288 288"/><polygon id="Feld1" class="cls-2" points="0 360 72 396 144 360 72 324 0 360"/><polygon id="Feld37" class="cls-2" points="144 360 216 396 288 360 216 324 144 360"/><polygon id="Feld57" class="cls-2" points="720 144 792 180 864 144 792 108 720 144"/><polygon id="Feld25" class="cls-2" points="864 144 936 180 1008 144 936 108 864 144"/><polygon id="Feld81" class="cls-2" points="576 216 648 252 720 216 648 180 576 216"/><polygon id="Feld79" class="cls-2" points="720 216 792 252 864 216 792 180 720 216"/><polygon id="Feld83" class="cls-2" points="432 288 504 324 576 288 504 252 432 288"/><polygon id="Feld95" class="cls-2" points="576 288 648 324 720 288 648 252 576 288"/><polygon id="Feld65" class="cls-2" points="288 360 360 396 432 360 360 324 288 360"/><polygon id="Feld85" class="cls-2" points="432 360 504 396 576 360 504 324 432 360"/><polygon id="Feld3" class="cls-2" points="144 432 216 468 288 432 216 396 144 432"/><polygon id="Feld39" class="cls-2" points="288 432 360 468 432 432 360 396 288 432"/><polygon class="cls-3" points="0 360 0 377 720 738 720 720 0 360"/><polygon class="cls-4" points="1440 360 1440 377 720 738 720 720 1440 360"/><polyline class="cls-5" points="720 360 648 324 720 288 864 360 720 432 504 324 720 216 1008 360 720 504 360 324 720 144 1152 360 720 576 216 324 720 72 1296 360 720 648 72 324"/></g></g></svg>