<?xml version="1.0" encoding="utf-8"?>
<!-- Generator: Adobe Illustrator 22.0.1, SVG Export Plug-In . SVG Version: 6.00 Build 0)  -->
<svg version="1.1" id="Ebene_1" xmlns="http://www.w3.org/2000/svg" xmlns:xlink="http://www.w3.org/1999/xlink" x="0px" y="0px"
	 viewBox="0 0 1417.3 1417.3" style="enable-background:new 0 0 1417.3 1417.3;" xml:space="preserve">
<style type="text/css">
	.st0{fill:#B3CE49;}
	.st1{fill:#9AC33B;}
	.st2{fill:#754812;}
	.st3{fill:#5D3A12;}
	.st4{opacity:0.46;fill:none;stroke:#586724;stroke-width:3;stroke-miterlimit:10;}
</style>
<polygon id="Feld24" class="st0" points="936,540 1008,576 1080,540 1008,504 "/>
<polygon id="Feld54" class="st0" points="936,612 1008,648 1080,612 1008,576 "/>
<polygon id="Feld78" class="st0" points="792,612 864,648 936,612 864,576 "/>
<polygon id="Feld92" class="st0" points="792,684 864,720 936,684 864,648 "/>
<polygon id="Feld100" class="st0" points="648,684 720,720 792,684 720,648 "/>
<polygon id="Feld98" class="st0" points="648,756 720,792 792,756 720,720 "/>
<polygon id="Feld86" class="st0" points="504,756 576,792 648,756 576,720 "/>
<polygon id="Feld68" class="st0" points="504,828 576,864 648,828 576,792 "/>
<polygon id="Feld40" class="st0" points="360,828 432,864 504,828 432,792 "/>
<polygon id="Feld6" class="st0" points="360,900 432,936 504,900 432,864 "/>
<polygon id="Feld22" class="st0" points="1080,612 1152,648 1224,612 1152,576 "/>
<polygon id="Feld52" class="st0" points="1080,684 1152,720 1224,684 1152,648 "/>
<polygon id="Feld76" class="st0" points="936,684 1008,720 1080,684 1008,648 "/>
<polygon id="Feld74" class="st0" points="936,756 1008,792 1080,756 1008,720 "/>
<polygon id="Feld90" class="st0" points="792,756 864,792 936,756 864,720 "/>
<polygon id="Feld72" class="st0" points="792,828 864,864 936,828 864,792 "/>
<polygon id="Feld88" class="st0" points="648,828 720,864 792,828 720,792 "/>
<polygon id="Feld70" class="st0" points="648,900 720,936 792,900 720,864 "/>
<polygon id="Feld42" class="st0" points="504,900 576,936 648,900 576,864 "/>
<polygon id="Feld8" class="st0" points="504,972 576,1008 648,972 576,936 "/>
<polygon id="Feld20" class="st0" points="1224,684 1296,720 1368,684 1296,648 "/>
<polygon id="Feld50" class="st0" points="1080,756 1152,792 1224,756 1152,720 "/>
<polygon id="Feld48" class="st0" points="936,828 1008,864 1080,828 1008,792 "/>
<polygon id="Feld46" class="st0" points="792,900 864,936 936,900 864,864 "/>
<polygon id="Feld44" class="st0" points="648,972 720,1008 792,972 720,936 "/>
<polygon id="Feld18" class="st0" points="1224,756 1296,792 1368,756 1296,720 "/>
<polygon id="Feld16" class="st0" points="1080,828 1152,864 1224,828 1152,792 "/>
<polygon id="Feld14" class="st0" points="936,900 1008,936 1080,900 1008,864 "/>
<polygon id="Feld12" class="st0" points="792,972 864,1008 936,972 864,936 "/>
<polygon id="Feld10" class="st0" points="648,1044 720,1080 792,1044 720,1008 "/>
<polygon id="Feld28" class="st0" points="648,396 720,432 792,396 720,360 "/>
<polygon id="Feld58" class="st0" points="648,468 720,504 792,468 720,432 "/>
<polygon id="Feld30" class="st0" points="504,468 576,504 648,468 576,432 "/>
<polygon id="Feld60" class="st0" points="504,540 576,576 648,540 576,504 "/>
<polygon id="Feld32" class="st0" points="360,540 432,576 504,540 432,504 "/>
<polygon id="Feld62" class="st0" points="360,612 432,648 504,612 432,576 "/>
<polygon id="Feld34" class="st0" points="216,612 288,648 360,612 288,576 "/>
<polygon id="Feld64" class="st0" points="216,684 288,720 360,684 288,648 "/>
<polygon id="Feld36" class="st0" points="72,684 144,720 216,684 144,648 "/>
<polygon id="Feld2" class="st0" points="72,756 144,792 216,756 144,720 "/>
<polygon id="Feld26" class="st0" points="792,468 864,504 936,468 864,432 "/>
<polygon id="Feld56" class="st0" points="792,540 864,576 936,540 864,504 "/>
<polygon id="Feld80" class="st0" points="648,540 720,576 792,540 720,504 "/>
<polygon id="Feld94" class="st0" points="648,612 720,648 792,612 720,576 "/>
<polygon id="Feld82" class="st0" points="504,612 576,648 648,612 576,576 "/>
<polygon id="Feld96" class="st0" points="504,684 576,720 648,684 576,648 "/>
<polygon id="Feld84" class="st0" points="360,684 432,720 504,684 432,648 "/>
<polygon id="Feld66" class="st0" points="360,756 432,792 504,756 432,720 "/>
<polygon id="Feld38" class="st0" points="216,756 288,792 360,756 288,720 "/>
<polygon id="Feld4" class="st0" points="216,828 288,864 360,828 288,792 "/>
<polygon id="Feld55" class="st1" points="864,576 936,612 1008,576 936,540 "/>
<polygon id="Feld23" class="st1" points="1008,576 1080,612 1152,576 1080,540 "/>
<polygon id="Feld93" class="st1" points="720,648 792,684 864,648 792,612 "/>
<polygon id="Feld77" class="st1" points="864,648 936,684 1008,648 936,612 "/>
<polygon id="Feld97" class="st1" points="576,720 648,756 720,720 648,684 "/>
<polygon id="Feld99" class="st1" points="720,720 792,756 864,720 792,684 "/>
<polygon id="Feld67" class="st1" points="432,792 504,828 576,792 504,756 "/>
<polygon id="Feld87" class="st1" points="576,792 648,828 720,792 648,756 "/>
<polygon id="Feld5" class="st1" points="288,864 360,900 432,864 360,828 "/>
<polygon id="Feld41" class="st1" points="432,864 504,900 576,864 504,828 "/>
<polygon id="Feld53" class="st1" points="1008,648 1080,684 1152,648 1080,612 "/>
<polygon id="Feld21" class="st1" points="1152,648 1224,684 1296,648 1224,612 "/>
<polygon id="Feld91" class="st1" points="864,720 936,756 1008,720 936,684 "/>
<polygon id="Feld75" class="st1" points="1008,720 1080,756 1152,720 1080,684 "/>
<polygon id="Feld89" class="st1" points="720,792 792,828 864,792 792,756 "/>
<polygon id="Feld73" class="st1" points="864,792 936,828 1008,792 936,756 "/>
<polygon id="Feld69" class="st1" points="576,864 648,900 720,864 648,828 "/>
<polygon id="Feld71" class="st1" points="720,864 792,900 864,864 792,828 "/>
<polygon id="Feld7" class="st1" points="432,936 504,972 576,936 504,900 "/>
<polygon id="Feld43" class="st1" points="576,936 648,972 720,936 648,900 "/>
<polygon id="Feld51" class="st1" points="1152,720 1224,756 1296,720 1224,684 "/>
<polygon id="Feld49" class="st1" points="1008,792 1080,828 1152,792 1080,756 "/>
<polygon id="Feld47" class="st1" points="864,864 936,900 1008,864 936,828 "/>
<polygon id="Feld45" class="st1" points="720,936 792,972 864,936 792,900 "/>
<polygon id="Feld9" class="st1" points="576,1008 648,1044 720,1008 648,972 "/>
<polygon id="Feld19" class="st1" points="1296,720 1368,756 1440,720 1368,684 "/>
<polygon id="Feld17" class="st1" points="1152,792 1224,828 1296,792 1224,756 "/>
<polygon id="Feld15" class="st1" points="1008,864 1080,900 1152,864 1080,828 "/>
<polygon id="Feld13" class="st1" points="864,936 936,972 1008,936 936,900 "/>
<polygon id="Feld11" class="st1" points="720,1008 792,1044 864,1008 792,972 "/>
<polygon id="Feld29" class="st1" points="576,432 648,468 720,432 648,396 "/>
<polygon id="Feld27" class="st1" points="720,432 792,468 864,432 792,396 "/>
<polygon id="Feld31" class="st1" points="432,504 504,540 576,504 504,468 "/>
<polygon id="Feld59" class="st1" points="576,504 648,540 720,504 648,468 "/>
<polygon id="Feld33" class="st1" points="288,576 360,612 432,576 360,540 "/>
<polygon id="Feld61" class="st1" points="432,576 504,612 576,576 504,540 "/>
<polygon id="Feld35" class="st1" points="144,648 216,684 288,648 216,612 "/>
<polygon id="Feld63" class="st1" points="288,648 360,684 432,648 360,612 "/>
<polygon id="Feld1" class="st1" points="0,720 72,756 144,720 72,684 "/>
<polygon id="Feld37" class="st1" points="144,720 216,756 288,720 216,684 "/>
<polygon id="Feld57" class="st1" points="720,504 792,540 864,504 792,468 "/>
<polygon id="Feld25" class="st1" points="864,504 936,540 1008,504 936,468 "/>
<polygon id="Feld81" class="st1" points="576,576 648,612 720,576 648,540 "/>
<polygon id="Feld79" class="st1" points="720,576 792,612 864,576 792,540 "/>
<polygon id="Feld83" class="st1" points="432,648 504,684 576,648 504,612 "/>
<polygon id="Feld95" class="st1" points="576,648 648,684 720,648 648,612 "/>
<polygon id="Feld65" class="st1" points="288,720 360,756 432,720 360,684 "/>
<polygon id="Feld85" class="st1" points="432,720 504,756 576,720 504,684 "/>
<polygon id="Feld3" class="st1" points="144,792 216,828 288,792 216,756 "/>
<polygon id="Feld39" class="st1" points="288,792 360,828 432,792 360,756 "/>
<polygon class="st2" points="0,720 0,737 720,1098 720,1080 "/>
<polygon class="st3" points="1440,720 1440,737 720,1098 720,1080 "/>
<polyline class="st4" points="720,720 648,684 720,648 864,720 720,792 504,684 720,576 1008,720 720,864 360,684 720,504 1152,720 
	720,936 216,684 720,432 1296,720 720,1008 72,684 "/>
</svg>
