<svg id="Ebene_1" data-name="Ebene 1" xmlns="http://www.w3.org/2000/svg" viewBox="0 0 622.83 383.19"><defs><style>.cls-1{fill:#ffed00;}.cls-1,.cls-2,.cls-3,.cls-4,.cls-5,.cls-6,.cls-7,.cls-8{opacity:0.83;}.cls-2{fill:#e9d200;}.cls-3{fill:#c7ae00;}.cls-4{fill:#e94e1b;}.cls-5{fill:#c63e19;}.cls-6{fill:#009fe3;}.cls-7{fill:#0088b7;}.cls-8{fill:#f9b233;}</style></defs><title>Feld2</title><polygon id="Feld3" class="cls-1" points="467.61 269.97 447.18 281.77 312.39 359.59 176.63 281.21 156.19 269.41 311.42 179.79 467.61 269.97"/><polygon class="cls-2" points="312.39 359.59 312.39 383.19 156.19 293.01 156.19 269.41 176.63 281.21 312.39 359.59"/><polygon class="cls-3" points="467.61 269.97 467.61 293.57 312.39 383.19 312.39 359.59 447.18 281.77 467.61 269.97"/><polygon id="Feld2" class="cls-4" points="622.83 180.35 602.4 192.15 467.61 269.97 331.85 191.59 311.41 179.79 466.64 90.17 622.83 180.35"/><polygon class="cls-5" points="622.83 180.35 622.83 203.95 467.61 293.57 467.61 269.97 602.4 192.15 622.83 180.35"/><polygon id="Feld4" class="cls-6" points="311.42 179.8 290.98 191.6 156.2 269.42 20.44 191.04 0 179.24 155.22 89.62 311.42 179.8"/><polygon class="cls-7" points="156.2 269.42 156.2 293.01 0 202.83 0 179.24 20.44 191.04 156.2 269.42"/><polygon id="Feld1" class="cls-8" points="466.64 90.18 446.2 101.98 311.42 179.8 175.66 101.42 155.22 89.62 310.44 0 466.64 90.18"/></svg>